<svg width="66" height="66" viewBox="0 0 66 66" fill="none" xmlns="http://www.w3.org/2000/svg">
<rect width="66" height="66" rx="6" fill="#FFD4D0"/>
<path d="M7.02 47V46.265L10.45 44.865L20.565 18.3H21.125L30.68 45.74L33.9 46.265V47H23.61V46.265L26.48 45.81L23.505 37.515H14.195L11.36 44.865L14.51 46.265V47H7.02ZM14.475 36.78H23.26L19.06 24.46L14.475 36.78ZM34.5563 46.265L37.7762 45.74V20.26L34.5563 19.77V19H45.2313C47.7513 19 49.7579 19.2333 51.2513 19.7C52.7446 20.1667 53.8296 20.8783 54.5063 21.835C55.1829 22.7683 55.5213 24.005 55.5213 25.545C55.5213 28.905 53.3979 31.0517 49.1513 31.985V32.16C51.7413 32.51 53.7479 33.28 55.1713 34.47C56.6179 35.66 57.3413 37.3167 57.3413 39.44C57.3413 42.0067 56.3963 43.9083 54.5063 45.145C52.6396 46.3817 50.1079 47 46.9113 47H34.5563V46.265ZM45.5113 31.88C47.3779 31.88 48.8129 31.355 49.8163 30.305C50.8196 29.255 51.3213 27.7617 51.3213 25.825V25.615C51.3213 21.7883 49.2913 19.875 45.2313 19.875H41.6263V31.88H45.5113ZM46.9113 46.16C48.8946 46.16 50.4346 45.5883 51.5313 44.445C52.6279 43.2783 53.1763 41.6217 53.1763 39.475V39.09C53.1763 36.9667 52.6279 35.38 51.5313 34.33C50.4579 33.28 48.9179 32.755 46.9113 32.755H41.6263V46.16H46.9113Z" fill="black"/>
<line x1="3.00002" y1="55.75" x2="63" y2="55.7538" stroke="white" stroke-width="0.5"/>
<line x1="3" y1="9.75" x2="63" y2="9.75" stroke="white" stroke-width="0.5"/>
</svg>
