<svg width="63" height="51" viewBox="0 0 63 51" fill="none" xmlns="http://www.w3.org/2000/svg">
<path d="M1.88 40V39.16L5.8 37.56L17.36 7.2H18L28.92 38.56L32.6 39.16V40H20.84V39.16L24.12 38.64L20.72 29.16H10.08L6.84 37.56L10.44 39.16V40H1.88ZM10.4 28.32H20.44L15.64 14.24L10.4 28.32ZM33.35 39.16L37.03 38.56V9.44L33.35 8.88V8H45.55C48.43 8 50.7233 8.26667 52.43 8.8C54.1367 9.33333 55.3767 10.1467 56.15 11.24C56.9233 12.3067 57.31 13.72 57.31 15.48C57.31 19.32 54.8833 21.7733 50.03 22.84V23.04C52.99 23.44 55.2833 24.32 56.91 25.68C58.5633 27.04 59.39 28.9333 59.39 31.36C59.39 34.2933 58.31 36.4667 56.15 37.88C54.0167 39.2933 51.1233 40 47.47 40H33.35V39.16ZM45.87 22.72C48.0033 22.72 49.6433 22.12 50.79 20.92C51.9367 19.72 52.51 18.0133 52.51 15.8V15.56C52.51 11.1867 50.19 9 45.55 9H41.43V22.72H45.87ZM47.47 39.04C49.7367 39.04 51.4967 38.3867 52.75 37.08C54.0033 35.7467 54.63 33.8533 54.63 31.4V30.96C54.63 28.5333 54.0033 26.72 52.75 25.52C51.5233 24.32 49.7633 23.72 47.47 23.72H41.43V39.04H47.47Z" fill="white"/>
<line y1="45.5" x2="61" y2="45.5" stroke="#FFD4D0"/>
<line y1="2.5" x2="61" y2="2.5" stroke="#FFD4D0"/>
</svg>
