<svg width="62" height="51" viewBox="0 0 62 51" fill="none" xmlns="http://www.w3.org/2000/svg">
<path d="M0.88 40V39.16L4.8 37.56L16.36 7.2H17L27.92 38.56L31.6 39.16V40H19.84V39.16L23.12 38.64L19.72 29.16H9.08L5.84 37.56L9.44 39.16V40H0.88ZM9.4 28.32H19.44L14.64 14.24L9.4 28.32ZM32.35 39.16L36.03 38.56V9.44L32.35 8.88V8H44.55C47.43 8 49.7233 8.26667 51.43 8.8C53.1367 9.33333 54.3767 10.1467 55.15 11.24C55.9233 12.3067 56.31 13.72 56.31 15.48C56.31 19.32 53.8833 21.7733 49.03 22.84V23.04C51.99 23.44 54.2833 24.32 55.91 25.68C57.5633 27.04 58.39 28.9333 58.39 31.36C58.39 34.2933 57.31 36.4667 55.15 37.88C53.0167 39.2933 50.1233 40 46.47 40H32.35V39.16ZM44.87 22.72C47.0033 22.72 48.6433 22.12 49.79 20.92C50.9367 19.72 51.51 18.0133 51.51 15.8V15.56C51.51 11.1867 49.19 9 44.55 9H40.43V22.72H44.87ZM46.47 39.04C48.7367 39.04 50.4967 38.3867 51.75 37.08C53.0033 35.7467 53.63 33.8533 53.63 31.4V30.96C53.63 28.5333 53.0033 26.72 51.75 25.52C50.5233 24.32 48.7633 23.72 46.47 23.72H40.43V39.04H46.47Z" fill="white"/>
<line y1="43.5" x2="59" y2="43.5" stroke="white"/>
<line y1="4.5" x2="59" y2="4.5" stroke="white"/>
</svg>
